<svg xmlns="http://www.w3.org/2000/svg" viewBox="0 0 647.3 510.86"><title>car-figure6</title><g id="Layer_2" data-name="Layer 2"><g id="Layer_1-2" data-name="Layer 1"><path d="M201.76,323.05a28.2,28.2,0,1,0,28.2,28.2A28.23,28.23,0,0,0,201.76,323.05Zm0,49.13a20.93,20.93,0,1,1,20.93-20.93A20.95,20.95,0,0,1,201.76,372.18Z" fill="#fff" stroke="#fff" stroke-miterlimit="2.61" stroke-width="0.5"/><path d="M201.76,337.39a13.86,13.86,0,1,0,13.86,13.86A13.89,13.89,0,0,0,201.76,337.39Z" fill="#fff" stroke="#fff" stroke-miterlimit="2.61" stroke-width="0.5"/><path d="M236.9,248.35c5.83,0,9.7-2.61,9.7-4.33s-3.87-4.33-9.7-4.33-9.7,2.61-9.7,4.33S231.07,248.35,236.9,248.35Z" fill="#fff" stroke="#fff" stroke-miterlimit="2.61" stroke-width="0.5"/><polygon points="126.75 298.24 121.38 298.24 117.86 314.1 124.58 314.1 126.75 298.24" fill="#fff" stroke="#fff" stroke-miterlimit="2.61" stroke-width="0.5"/><polygon points="148.37 331.31 107.91 331.31 107.91 343.2 148.33 343.2 148.37 331.31" fill="#fff" stroke="#fff" stroke-miterlimit="2.61" stroke-width="0.5"/><path d="M458.64,337.39a13.86,13.86,0,1,0,13.86,13.86A13.88,13.88,0,0,0,458.64,337.39Z" fill="#fff" stroke="#fff" stroke-miterlimit="2.61" stroke-width="0.5"/><path d="M458.64,323.05a28.2,28.2,0,1,0,28.21,28.2A28.22,28.22,0,0,0,458.64,323.05Zm0,49.13a20.93,20.93,0,1,1,20.95-20.93A21,21,0,0,1,458.64,372.18Z" fill="#fff" stroke="#fff" stroke-miterlimit="2.61" stroke-width="0.5"/><polygon points="508.52 341.06 553.98 341.02 553.98 329.75 506.81 329.75 508.52 341.06" fill="#fff" stroke="#fff" stroke-miterlimit="2.61" stroke-width="0.5"/><polygon points="521.69 309.5 540.46 309.5 535.18 298.24 524.75 298.24 521.69 309.5" fill="#fff" stroke="#fff" stroke-miterlimit="2.61" stroke-width="0.5"/><path d="M.25.25V510.61h646.8V.25ZM561.07,348.09l-28.11,0-16.37,10.05H493.24a35.28,35.28,0,0,1-69.18,0H236.34a35.27,35.27,0,0,1-69.17,0H119.63l-4-7.89H100.83v-26h7.52l.68-3.06h0l6.52-30h.19l3.51-15.75L185.75,271l1-1.45h0l1-1.48h0l36.45-51.63H377l43.09,52.72,2,1.84,112.62,9.73,19.75,42h6.59Z" fill="#fff" stroke="#fff" stroke-miterlimit="2.61" stroke-width="0.5"/><path d="M281.23,286.08a.4.4,0,0,1-.4.41h12.75a.4.4,0,0,1-.4-.34l7.08-.07a6.67,6.67,0,0,0-6.68-6.67H280.83a6.68,6.68,0,0,0-6.67,6.67v.07Z" fill="#231f20"/><path d="M201.76,330.32a20.93,20.93,0,1,0,20.93,20.93A20.94,20.94,0,0,0,201.76,330.32Zm0,34.78a13.86,13.86,0,1,1,13.86-13.85A13.88,13.88,0,0,1,201.76,365.1Z" fill="#231f20"/><path d="M220.13,244c0,6.39,7.36,11.41,16.77,11.41s16.77-5,16.77-11.41-7.37-11.4-16.77-11.4S220.13,237.63,220.13,244Zm16.77-4.33c5.83,0,9.7,2.61,9.7,4.33s-3.87,4.33-9.7,4.33-9.7-2.61-9.7-4.33S231.07,239.69,236.9,239.69Z" fill="#231f20"/><path d="M458.64,330.32a20.93,20.93,0,1,0,20.95,20.93A20.95,20.95,0,0,0,458.64,330.32Zm0,34.78a13.86,13.86,0,1,1,13.86-13.85A13.87,13.87,0,0,1,458.64,365.1Z" fill="#231f20"/><path d="M308,14.35c108,0,195.6,87.57,195.6,195.6a195.38,195.38,0,0,1-12,67.55l-71-6.14-2-1.82-42.63-52.15H224.85l-36.06,51.07-1,1.47-1,1.44-63.09,4.22A195.21,195.21,0,0,1,112.37,210c0-108,87.57-195.6,195.6-195.6Zm117.51,352a195.7,195.7,0,0,1-209.06,16.51,35,35,0,0,0,20.39-25.18h185.7a34.7,34.7,0,0,0,3,8.67Z" fill="#e6e6e6" fill-rule="evenodd"/><path d="M257.39,124.94v79.57a64.64,64.64,0,0,1-2,16.14l-29.37.07-39.24,50.65-22.45,1.19c-24-14.36-45.52-37.35-45.52-68.05V125.09a113.63,113.63,0,0,0,14,.86c22.79,0,42.91-6.67,55-16.86,12.09,10.15,32.18,16.8,54.92,16.8a113.07,113.07,0,0,0,14.69-1Z" fill="#fca742" fill-rule="evenodd"/><path d="M261.39,124.94v79.57a68.73,68.73,0,0,1-1.89,16.13l-8.48.76a60.73,60.73,0,0,0,2.37-16.89V129.39c-1,.1-2,.18-3,.24q-3.89.26-7.65.26a110.39,110.39,0,0,1-32.09-4.62,75.53,75.53,0,0,1-22.83-11.1,75.4,75.4,0,0,1-22.84,11.14A110.42,110.42,0,0,1,132.78,130c-2.36,0-4.79-.08-7.27-.23l-2.72-.2v75c0,16.81,6.9,31.22,17.15,43,8.84,10.17,20.16,18.42,31.76,24.65l-14.32.75a113.52,113.52,0,0,1-23.47-20.18c-11.43-13.15-19.12-29.28-19.12-48.23V120.56l4.49.56c2.27.28,4.51.49,6.69.63s4.42.2,6.81.2a102.33,102.33,0,0,0,29.81-4.26c9.1-2.79,16.86-6.8,22.61-11.65l2.57-2.17,2.57,2.15c5.77,4.85,13.52,8.85,22.59,11.62a102.4,102.4,0,0,0,29.77,4.25c2.49,0,4.88-.08,7.15-.23,2.43-.15,4.78-.38,7-.68l4.51-.59v4.55Z" fill="#231f20"/><path d="M187.9,275.09c-29-10.68-63.35-35.36-63.35-72.16V130.31a106,106,0,0,0,13,.79c20.68,0,39-5.81,50.33-14.74V275.09Z" fill="#ffdc6c" fill-rule="evenodd"/><path d="M534.73,280.68,422.11,271l-2-1.84L377,216.39H224.25L187.8,268h0l-1,1.48h0l-1,1.45-66.54,4.45-3.51,15.75h-.19l-6.52,30h0l-.68,3.06h-7.52v26h14.82l4,7.89h47.54a35.27,35.27,0,0,0,69.17,0H424.06a35.28,35.28,0,0,0,69.18,0h23.35L533,348.12l28.11,0V322.68h-6.59Zm-270.3-57.21h109.2L410,268H264.41Zm-143,74.77h5.37l-2.17,15.86h-6.72Zm-13.47,45V331.32h40.46l0,11.88Zm93.85,36.24A28.2,28.2,0,1,1,230,351.25,28.23,28.23,0,0,1,201.76,379.44Zm55.52-28.34H237a35.28,35.28,0,0,0-70.55,0H124l-.41-.82h31.81l.08-26H115.61l.68-3.06h14.46l4.11-30H123l2-9,64.64-4.33,1.86-2.7h65.84Zm0-83.08H196.47l31.44-44.55h29.44ZM414,351.1H264.35l.06-76H414Zm121.22-52.86,5.28,11.26H521.69l3.06-11.26Zm-76.54,81.2a28.2,28.2,0,1,1,28.21-28.19A28.23,28.23,0,0,1,458.64,379.44Zm56-28.34H493.92a35.27,35.27,0,0,0-70.54,0H421V278l109,9.41,1.78,3.79H519.34l-6.9,25.42h31.34l2.87,6.1H498.57l3.86,25.47,17,0ZM554,341l-45.46,0-1.71-11.31H554Z" fill="#231f20"/><path d="M.25,318.18H114.33l3.88-7.07H.25v7.07Zm549.44,0h96.94v-7.07H542.17l7.52,7.07Z" fill="#231f20" fill-rule="evenodd"/><polygon points="157.98 194.56 185.08 215.82 189.45 210.26 189.45 210.26 220 171.94 214.48 167.53 183.88 205.9 162.34 189 157.98 194.56 157.98 194.56" fill="#231f20" fill-rule="evenodd"/></g></g></svg>